<?xml version="1.0" standalone="no"?>
<!DOCTYPE svg PUBLIC "-//W3C//DTD SVG 20010904//EN"
 "http://www.w3.org/TR/2001/REC-SVG-20010904/DTD/svg10.dtd">
<svg version="1.0" xmlns="http://www.w3.org/2000/svg"
 width="512.000000pt" height="512.000000pt" viewBox="0 0 512.000000 512.000000"
 preserveAspectRatio="xMidYMid meet">
<metadata>
Created by potrace 1.11, written by Peter Selinger 2001-2013
</metadata>
<g transform="translate(0.000000,512.000000) scale(0.100000,-0.100000)"
fill="#000000" stroke="none">
<path d="M2220 4903 c0 -4 -39 -7 -86 -6 l-86 2 -643 -644 c-354 -354 -646
-653 -650 -664 -3 -12 -10 -19 -15 -16 -5 3 -11 -4 -15 -15 -3 -11 -12 -20
-19 -20 -17 0 -36 -43 -27 -59 5 -7 5 -30 1 -51 -4 -21 -4 -44 1 -51 4 -7 4
-20 -1 -29 -5 -9 -5 -22 -1 -29 5 -7 5 -30 1 -51 -4 -21 -3 -45 2 -54 6 -11 5
-16 -4 -16 -8 0 -9 -3 -1 -11 6 -6 7 -25 3 -50 -4 -22 -3 -42 1 -45 5 -3 6
-11 2 -17 -9 -15 -9 -49 0 -65 5 -6 3 -21 -3 -33 -8 -13 -8 -25 -2 -31 5 -5 6
-26 2 -49 -4 -22 -3 -42 1 -45 5 -3 6 -11 2 -17 -9 -15 -9 -49 0 -65 5 -6 3
-21 -3 -33 -8 -13 -8 -25 -2 -31 5 -5 6 -26 2 -49 -4 -22 -3 -42 1 -45 5 -3 6
-11 2 -17 -9 -15 -9 -49 0 -65 5 -6 3 -21 -3 -33 -8 -13 -8 -25 -2 -31 5 -5 6
-26 2 -49 -4 -22 -3 -42 1 -45 5 -3 6 -11 2 -17 -9 -15 -9 -49 0 -65 5 -6 3
-21 -3 -33 -8 -13 -8 -25 -2 -31 5 -5 6 -26 2 -49 -4 -22 -3 -42 1 -45 5 -3 6
-11 2 -17 -9 -15 -9 -49 0 -65 5 -6 3 -21 -3 -33 -7 -13 -8 -25 -3 -30 6 -6 7
-30 3 -54 -4 -24 -4 -49 0 -55 4 -6 4 -29 0 -50 -4 -21 -4 -44 1 -51 4 -7 4
-20 -1 -29 -5 -9 -5 -22 -1 -29 5 -7 5 -30 1 -51 -4 -21 -4 -44 1 -51 4 -7 4
-20 -1 -29 -5 -9 -5 -22 -1 -29 5 -7 5 -30 1 -51 -4 -21 -4 -44 1 -51 4 -7 4
-20 -1 -29 -5 -9 -5 -22 -1 -29 5 -7 5 -30 1 -51 -4 -21 -3 -45 2 -54 5 -10 5
-24 -2 -37 -8 -14 -8 -24 -1 -32 6 -8 6 -18 1 -27 -5 -9 -5 -19 1 -27 7 -8 7
-19 -1 -33 -8 -14 -8 -26 -2 -32 5 -5 6 -26 2 -49 -4 -22 -3 -42 1 -45 5 -3 6
-11 2 -17 -9 -15 -9 -49 0 -65 5 -6 3 -21 -3 -32 -6 -11 -8 -26 -4 -32 9 -14
11 -78 3 -78 -3 0 -4 -11 -1 -25 2 -14 8 -25 12 -25 12 0 19 -39 9 -46 -6 -3
-4 -16 5 -30 9 -13 16 -29 16 -35 0 -7 7 -21 17 -31 13 -14 13 -18 2 -18 -9
-1 -7 -7 8 -19 12 -10 23 -24 25 -31 5 -22 256 -270 272 -270 9 0 16 -5 16
-11 0 -6 6 -9 14 -6 8 3 17 -1 20 -9 3 -8 14 -14 24 -14 11 0 25 -6 32 -14 6
-8 18 -12 26 -9 8 3 20 1 27 -4 16 -13 57 -23 57 -14 0 4 27 4 60 1 33 -3 60
-2 60 2 0 5 9 4 20 -2 11 -6 20 -7 20 -3 0 4 54 6 120 3 66 -3 120 -3 120 0 0
3 36 3 80 0 44 -3 80 -3 80 0 0 6 358 3 383 -4 9 -2 17 -1 17 3 0 4 27 4 60 1
33 -3 60 -2 60 2 0 5 9 4 20 -2 11 -6 20 -7 20 -3 0 4 54 6 120 3 66 -3 120
-3 120 0 0 3 36 3 80 0 44 -3 80 -3 80 0 0 6 358 3 383 -4 9 -2 17 -1 17 3 0
4 27 4 60 1 33 -3 60 -2 60 2 0 5 9 4 20 -2 11 -6 20 -7 20 -3 0 4 54 6 120 3
66 -3 120 -3 120 0 0 3 36 3 80 0 44 -3 80 -3 80 0 0 3 63 3 140 0 77 -3 140
-1 140 3 0 4 9 3 20 -3 11 -6 20 -7 20 -2 0 5 14 7 30 4 18 -3 30 0 30 7 0 6
14 11 30 11 17 0 33 6 36 14 3 8 13 12 24 9 11 -3 34 5 52 18 48 34 158 147
158 162 0 7 9 19 20 27 12 8 20 26 20 42 0 15 4 28 9 28 5 0 11 9 14 20 3 11
0 20 -5 20 -6 0 -3 9 6 19 14 15 17 33 14 80 -1 34 1 61 5 61 4 0 3 9 -3 20
-6 11 -7 20 -2 20 5 0 6 18 2 40 -4 22 -3 40 2 40 5 0 4 9 -2 20 -6 11 -7 20
-2 20 5 0 6 18 2 40 -4 22 -3 40 2 40 5 0 4 9 -2 20 -6 11 -7 20 -2 20 5 0 6
18 2 40 -4 22 -3 40 2 40 5 0 4 9 -2 20 -6 11 -7 20 -2 20 5 0 6 18 2 40 -4
22 -3 40 2 40 5 0 4 9 -2 20 -6 11 -7 20 -2 20 4 0 5 27 2 60 -3 33 -2 60 2
60 5 0 4 9 -2 20 -6 11 -7 20 -2 20 5 0 6 18 2 40 -4 22 -3 40 2 40 5 0 4 9
-2 20 -6 11 -7 20 -2 20 5 0 6 18 2 40 -4 22 -3 40 2 40 5 0 4 9 -2 20 -6 11
-7 20 -2 20 5 0 6 18 2 40 -4 22 -3 40 2 40 5 0 4 9 -2 20 -6 11 -7 20 -2 20
5 0 6 18 2 40 -4 22 -3 40 2 40 5 0 4 9 -2 20 -6 11 -7 20 -2 20 4 0 5 27 2
60 -3 33 -2 60 2 60 5 0 4 9 -2 20 -6 11 -7 20 -2 20 5 0 6 18 2 40 -4 22 -3
40 2 40 5 0 4 9 -2 20 -6 11 -7 20 -2 20 5 0 6 18 2 40 -4 22 -3 40 2 40 5 0
4 9 -2 20 -6 11 -7 20 -2 20 5 0 6 18 2 40 -4 22 -3 40 2 40 5 0 4 9 -2 20 -6
11 -7 20 -2 20 5 0 6 18 2 40 -4 22 -3 40 2 40 5 0 4 9 -2 20 -6 11 -7 20 -2
20 4 0 5 27 2 60 -3 33 -2 60 2 60 5 0 4 9 -2 20 -6 11 -7 20 -2 20 5 0 6 18
2 40 -4 22 -3 40 2 40 5 0 4 9 -2 20 -6 11 -7 20 -2 20 5 0 6 18 2 40 -4 22
-3 40 2 40 5 0 4 9 -2 20 -6 11 -7 20 -2 20 5 0 6 18 2 40 -4 22 -3 40 2 40 5
0 4 9 -2 20 -6 11 -7 20 -2 20 5 0 6 18 2 40 -4 22 -3 40 2 40 5 0 4 9 -2 20
-6 11 -7 20 -2 20 4 0 5 27 2 60 -3 33 -2 60 2 60 5 0 4 9 -2 20 -6 11 -7 20
-2 20 5 0 6 18 2 40 -4 22 -3 40 2 40 5 0 4 9 -2 20 -6 11 -7 20 -2 20 5 0 6
18 2 40 -4 22 -3 40 2 40 5 0 4 9 -2 20 -6 11 -7 20 -2 20 5 0 6 18 2 40 -4
22 -3 40 2 40 5 0 4 9 -2 20 -6 11 -7 20 -2 20 5 0 6 18 2 40 -4 22 -3 40 2
40 5 0 4 9 -2 20 -6 11 -7 20 -2 20 4 0 5 27 2 60 -3 33 -2 60 2 60 5 0 4 9
-2 20 -6 11 -7 20 -2 20 5 0 6 18 2 40 -4 22 -3 40 2 40 5 0 4 9 -2 20 -6 11
-7 20 -2 20 5 0 6 18 2 40 -4 22 -3 40 2 40 5 0 4 9 -2 20 -6 11 -7 20 -2 20
5 0 6 18 2 40 -4 22 -3 40 2 40 5 0 4 9 -2 20 -8 14 -8 20 0 20 6 0 8 5 4 11
-4 7 -7 25 -6 40 0 16 -4 31 -9 34 -5 4 -9 17 -9 31 0 14 -4 22 -10 19 -6 -4
-10 8 -10 29 0 20 -4 36 -10 36 -5 0 -17 14 -25 31 -9 17 -45 59 -80 94 -35
34 -61 66 -58 69 4 3 1 6 -6 6 -6 0 -43 32 -82 70 -38 39 -77 70 -84 70 -8 0
-15 5 -15 10 0 6 -9 10 -20 10 -11 0 -23 6 -26 14 -4 11 -12 13 -30 6 -16 -6
-27 -5 -36 3 -18 18 -48 28 -48 16 0 -6 -7 -6 -20 1 -14 8 -20 8 -20 0 0 -8
-6 -8 -20 0 -11 6 -20 7 -20 2 0 -5 -18 -6 -40 -2 -22 4 -40 3 -40 -2 0 -5 -9
-4 -20 2 -11 6 -20 7 -20 2 0 -4 -27 -5 -60 -2 -33 3 -60 2 -60 -2 0 -5 -9 -4
-20 2 -11 6 -20 7 -20 2 0 -5 -18 -6 -40 -2 -22 4 -40 3 -40 -2 0 -5 -9 -4
-20 2 -15 8 -20 8 -20 -1 0 -9 -3 -9 -14 0 -10 8 -16 9 -21 1 -4 -7 -12 -7
-26 0 -10 6 -19 7 -19 3 0 -4 -36 -6 -80 -3 -44 3 -80 1 -80 -3 0 -4 -9 -3
-20 3 -11 6 -20 7 -20 3 0 -4 -36 -6 -80 -3 -44 3 -80 1 -80 -3 0 -4 -9 -3
-20 3 -15 8 -20 8 -20 -1 0 -9 -3 -9 -14 0 -10 8 -16 9 -21 1 -4 -7 -12 -7
-26 0 -10 6 -19 7 -19 2 0 -5 -18 -6 -40 -2 -22 4 -40 3 -40 -2 0 -5 -9 -4
-20 2 -11 6 -20 7 -20 2 0 -4 -27 -5 -60 -2 -33 3 -60 2 -60 -2 0 -5 -9 -4
-20 2 -11 6 -20 7 -20 2 0 -5 -18 -6 -40 -2 -22 4 -40 3 -40 -2 0 -5 -9 -4
-20 2 -15 8 -20 8 -20 -1 0 -9 -3 -9 -14 0 -10 8 -16 9 -21 1 -4 -7 -12 -7
-26 0 -10 6 -19 7 -19 3 0 -4 -36 -6 -80 -3 -44 3 -80 1 -80 -3 0 -4 -9 -3
-20 3 -11 6 -20 7 -20 3z m1881 -2293 c1 -1306 -3 -1846 -10 -1853 -6 -6 -11
-20 -11 -30 0 -11 -10 -28 -22 -38 -30 -26 -36 -24 -10 4 12 13 22 33 22 45 0
11 5 24 10 27 7 4 10 630 10 1845 0 1215 -3 1841 -10 1845 -5 3 -10 11 -10 18
0 7 6 5 16 -4 14 -15 15 -199 15 -1859z m-67 -1968 c-12 -2 -30 -12 -40 -23
-21 -24 -33 -24 -29 -1 1 9 9 16 19 14 9 -2 16 1 16 7 0 12 31 20 45 12 6 -3
0 -7 -11 -9z m-2909 -42 c9 -14 2781 -14 2790 0 8 13 35 13 35 -1 0 -5 -5 -7
-11 -3 -6 3 -15 1 -19 -5 -5 -10 -325 -13 -1399 -13 -1253 0 -1392 2 -1407 16
-8 9 -11 16 -5 16 5 0 13 -4 16 -10z"/>
</g>
</svg>
